<svg width="51" height="51" viewBox="0 0 51 51" fill="none" xmlns="http://www.w3.org/2000/svg">
<path d="M19.1729 23.4729C18.0729 23.4729 17.1729 24.3729 17.1729 25.4729C17.1729 26.5729 18.0729 27.4729 19.1729 27.4729C20.2729 27.4729 21.1729 26.5729 21.1729 25.4729C21.1729 24.3729 20.2729 23.4729 19.1729 23.4729ZM31.1729 23.4729C30.0729 23.4729 29.1729 24.3729 29.1729 25.4729C29.1729 26.5729 30.0729 27.4729 31.1729 27.4729C32.2729 27.4729 33.1729 26.5729 33.1729 25.4729C33.1729 24.3729 32.2729 23.4729 31.1729 23.4729ZM25.1729 23.4729C24.0729 23.4729 23.1729 24.3729 23.1729 25.4729C23.1729 26.5729 24.0729 27.4729 25.1729 27.4729C26.2729 27.4729 27.1729 26.5729 27.1729 25.4729C27.1729 24.3729 26.2729 23.4729 25.1729 23.4729Z" fill="#20372F"/>
</svg>
