<svg width="29" height="29" viewBox="0 0 29 29" fill="none" xmlns="http://www.w3.org/2000/svg">
<path fill-rule="evenodd" clip-rule="evenodd" d="M14.5098 24.9448C20.0326 24.9448 24.5098 20.4677 24.5098 14.9448C24.5098 9.42198 20.0326 4.94482 14.5098 4.94482C8.98692 4.94482 4.50977 9.42198 4.50977 14.9448C4.50977 20.4677 8.98692 24.9448 14.5098 24.9448ZM9.80267 19.652C9.41214 19.2614 9.41214 18.6283 9.80267 18.2378L13.0956 14.9449L9.80266 11.652C9.41213 11.2615 9.41213 10.6283 9.80266 10.2378C10.1932 9.84723 10.8264 9.84723 11.2169 10.2378L14.5098 13.5306L17.8027 10.2377C18.1932 9.84719 18.8264 9.84719 19.2169 10.2377C19.6074 10.6282 19.6074 11.2614 19.2169 11.6519L15.924 14.9449L19.2169 18.2378C19.6074 18.6283 19.6074 19.2615 19.2169 19.652C18.8264 20.0425 18.1932 20.0425 17.8027 19.652L14.5098 16.3591L11.2169 19.652C10.8264 20.0425 10.1932 20.0425 9.80267 19.652Z" fill="#B3B3B3" fill-opacity="0.7"/>
</svg>
